<svg width="26" height="30" viewBox="0 0 26 30" fill="none" xmlns="http://www.w3.org/2000/svg">
<path d="M3.08333 29.1667H22.9167C24.4792 29.1667 25.75 27.8959 25.75 26.3333V10.75C25.75 10.3743 25.6007 10.0139 25.3351 9.74827C25.0694 9.48259 24.7091 9.33333 24.3333 9.33333H20.0833V7.91667C20.0833 4.01092 16.9058 0.833334 13 0.833334C9.09425 0.833334 5.91667 4.01092 5.91667 7.91667V9.33333H1.66667C1.29094 9.33333 0.930609 9.48259 0.664932 9.74827C0.399255 10.0139 0.25 10.3743 0.25 10.75V26.3333C0.25 27.8959 1.52075 29.1667 3.08333 29.1667ZM8.75 7.91667C8.75 5.5735 10.6568 3.66667 13 3.66667C15.3432 3.66667 17.25 5.5735 17.25 7.91667V9.33333H8.75V7.91667ZM3.08333 12.1667H5.91667V15H8.75V12.1667H17.25V15H20.0833V12.1667H22.9167L22.9195 26.3333H3.08333V12.1667Z" fill="black"/>
</svg>
