<svg width="52" height="37" viewBox="0 0 52 37" fill="none" xmlns="http://www.w3.org/2000/svg">
<path d="M17.9511 31.3188C17.9511 30.8193 17.6156 30.4862 17.1123 30.4862H2.51645C2.01315 30.4862 1.67761 30.8193 1.67761 31.3188C1.67761 31.8183 2.01315 32.1514 2.51645 32.1514H17.1123C17.6156 32.1514 17.9511 31.7351 17.9511 31.3188Z" fill="#FF0000"/>
<path d="M5.87186 34.6491H4.19419C3.69088 34.6491 3.35535 34.9821 3.35535 35.4816C3.35535 35.9812 3.69088 36.3142 4.19419 36.3142H5.87186C6.37517 36.3142 6.7107 35.9812 6.7107 35.4816C6.7107 34.9821 6.37517 34.6491 5.87186 34.6491Z" fill="#FF0000"/>
<path d="M9.81442 27.156C9.81442 26.6565 9.47889 26.3234 8.97558 26.3234H0.838839C0.335536 26.3234 0 26.6565 0 27.156C0 27.6555 0.335536 27.9886 0.838839 27.9886H8.97558C9.47889 27.9886 9.81442 27.5723 9.81442 27.156Z" fill="#FF0000"/>
<path d="M51.5047 28.5713C51.253 28.0718 50.7497 27.6555 50.2464 27.4058L43.8713 24.9913L41.2709 24.0755C40.5159 23.7425 39.8448 23.2429 39.4254 22.5769L37.2444 18.9969C37.6638 18.9136 37.9155 18.5806 37.9155 18.1643C37.9155 17.6648 37.58 17.3317 37.0767 17.3317H36.2378L35.2312 15.6666C35.6506 15.5834 35.9023 15.2503 35.9023 14.834C35.9023 14.3345 35.5667 14.0015 35.0634 14.0015H34.2246L33.3858 12.6694C33.7213 12.5861 33.973 12.2531 33.973 11.9201C33.973 11.4205 33.6374 11.0875 33.1341 11.0875H32.3792L31.2887 9.33913C31.2887 9.33913 31.2887 9.25588 31.2048 9.25588C30.1982 8.09029 28.856 7.50749 27.43 7.67401C26.1717 7.84052 25.1651 8.58982 24.7457 9.50564C24.6618 9.75541 24.6618 10.0052 24.8296 10.255L31.792 22.0774C31.8759 22.2439 32.0436 22.4104 32.2114 22.4104L40.7676 25.6574H40.8514L43.368 26.5732L49.6593 28.9876C49.827 29.0709 49.9948 29.1541 50.0787 29.4039C50.4142 30.07 50.4142 30.736 49.9948 31.4021H36.3217C35.4829 31.4021 34.644 31.1523 33.973 30.6528L10.5693 13.4187C10.5693 13.4187 10.9049 13.2522 11.3243 12.6694C11.7437 12.0866 11.9115 11.3373 11.9115 10.588L11.1565 3.59445L12.1631 2.01258C12.4148 1.67955 12.9181 1.59629 13.2536 1.84606C13.5053 2.09583 14.5119 2.9284 16.9445 6.84144C18.2028 8.67308 20.216 10.0052 22.4808 10.3382C22.9003 10.4215 23.4036 10.0884 23.4875 9.67216C23.5713 9.25588 23.2358 8.75634 22.8164 8.67308C21.0548 8.34006 19.3771 7.34098 18.3705 5.84237C15.4346 1.34652 14.5958 0.680474 14.2602 0.430705C13.1697 -0.318601 11.6598 -0.0688325 10.821 1.0135L5.70406 9.08936C5.36852 9.5889 5.28464 10.1717 5.36852 10.7545C4.86522 10.921 4.36192 11.1708 4.11027 11.6703L2.76812 13.7517C2.01317 14.834 2.3487 16.3327 3.43919 17.082C4.19415 17.6648 5.78794 18.6638 8.13669 20.1625C8.30446 20.2457 8.47223 20.329 8.55611 20.329C8.80777 20.329 9.05942 20.1625 9.22719 19.9127C9.47884 19.4964 9.39495 18.9969 8.97553 18.7471C6.71067 17.2485 5.11687 16.2494 4.36192 15.6666C4.02638 15.4168 3.9425 15.0006 4.19415 14.5843L5.45241 12.6694C5.70406 12.3364 6.20736 12.2531 6.5429 12.5029L32.8825 31.9849C33.8891 32.7342 35.0634 33.0672 36.2378 33.0672H47.8138C46.0522 33.8997 43.6196 34.6491 41.5225 34.6491H38.5866H36.1539C34.7279 34.6491 33.3019 34.2328 32.1275 33.4835C27.2622 30.403 18.2028 24.6583 11.5759 20.4122C11.1565 20.1625 10.6532 20.2457 10.4016 20.662C10.1499 21.0783 10.2338 21.5778 10.6532 21.8276C17.1123 25.9904 25.9201 31.5686 30.8692 34.7323H9.22719C8.72388 34.7323 8.38835 35.0653 8.38835 35.5649C8.38835 36.0644 8.72388 36.3974 9.22719 36.3974H36.1539H38.5866H41.4386C44.8779 36.3974 49.827 34.5658 51.0853 32.8174C52.1758 31.3188 52.2597 29.9034 51.5047 28.5713ZM32.9663 21.0783L26.4234 10.0052C26.675 9.75541 27.0945 9.50564 27.5978 9.42239C28.1011 9.33913 29.0238 9.42239 29.8626 10.3382L30.3659 11.1708H29.611C29.1077 11.1708 28.7721 11.5038 28.7721 12.0033C28.7721 12.5029 29.1077 12.8359 29.611 12.8359H31.3725L32.2114 14.168H31.5403C31.037 14.168 30.7015 14.501 30.7015 15.0006C30.7015 15.5001 31.037 15.8331 31.5403 15.8331H33.218L34.2246 17.415H33.5535C33.0502 17.415 32.7147 17.748 32.7147 18.2476C32.7147 18.7471 33.0502 19.0801 33.5535 19.0801H35.2312L37.58 22.7434L32.9663 21.0783ZM7.13009 10.0052L9.73049 5.92562L10.2338 10.7545C10.2338 11.0875 10.1499 11.4205 9.98214 11.6703C9.81437 11.9201 9.47884 12.5861 8.72388 12.0033C8.72388 12.0033 8.30446 11.7536 7.54951 11.1708C7.0462 10.7545 6.96232 10.3382 7.13009 10.0052Z" fill="#FF0000"/>
</svg>
