<svg width="20" height="19" viewBox="0 0 20 19" fill="none" xmlns="http://www.w3.org/2000/svg">
<path d="M17.023 14.6163C16.5546 14.1867 16.0988 13.7449 15.656 13.2912C15.284 12.9293 15.06 12.666 15.06 12.666L12.26 11.3859C13.381 10.1686 13.9997 8.60158 14 6.97872C14 3.28394 10.86 0.276596 7 0.276596C3.14 0.276596 0 3.28394 0 6.97872C0 10.6735 3.14 13.6809 7 13.6809C8.763 13.6809 10.37 13.0489 11.603 12.0159L12.94 14.6967C12.94 14.6967 13.215 14.9112 13.593 15.2673C13.98 15.6149 14.489 16.085 14.977 16.5762L16.335 17.9089L16.939 18.5274L19.06 16.4967L18.414 15.9184C18.035 15.5622 17.529 15.0893 17.023 14.6163ZM7 11.766C4.243 11.766 2 9.6184 2 6.97872C2 4.33904 4.243 2.19149 7 2.19149C9.757 2.19149 12 4.33904 12 6.97872C12 9.6184 9.757 11.766 7 11.766Z" fill="black"/>
</svg>
